<svg width="50" height="48" viewBox="0 0 50 48" fill="none" xmlns="http://www.w3.org/2000/svg">
<path d="M39.814 47.7278C34.4809 47.7278 30.1279 43.2119 30.1279 37.6794V36.4973C30.1279 35.5279 30.9028 34.724 31.8372 34.724C32.7716 34.724 33.5465 35.5279 33.5465 36.4973V37.6794C33.5465 41.2732 36.3498 44.1813 39.814 44.1813C43.2781 44.1813 46.0814 41.2732 46.0814 37.6794C46.0814 34.0857 43.2781 31.1776 39.814 31.1776H2.2093C1.27488 31.1776 0.5 30.3737 0.5 29.4043C0.5 28.435 1.27488 27.6311 2.2093 27.6311H39.814C45.147 27.6311 49.5 32.1469 49.5 37.6794C49.5 43.2119 45.147 47.7278 39.814 47.7278Z" fill="white"/>
<path d="M39.814 24.0846H2.2093C1.27488 24.0846 0.5 23.2808 0.5 22.3114C0.5 21.342 1.27488 20.5382 2.2093 20.5382H39.814C43.2781 20.5382 46.0814 17.6301 46.0814 14.0363C46.0814 10.4425 43.2781 7.53443 39.814 7.53443C36.3498 7.53443 33.5465 10.4425 33.5465 14.0363V15.2185C33.5465 16.1878 32.7716 16.9917 31.8372 16.9917C30.9028 16.9917 30.1279 16.1878 30.1279 15.2185V14.0363C30.1279 8.5038 34.4809 3.98796 39.814 3.98796C45.147 3.98796 49.5 8.5038 49.5 14.0363C49.5 19.5688 45.147 24.0846 39.814 24.0846Z" fill="white"/>
<path d="M18.8693 16.9943H2.2093C1.27488 16.9943 0.5 16.1904 0.5 15.221C0.5 14.2517 1.27488 13.4478 2.2093 13.4478H18.8693C21.3079 13.4478 23.2907 11.3908 23.2907 8.86103C23.2907 6.33121 21.3079 4.27426 18.8693 4.27426C16.4307 4.27426 14.4479 6.33121 14.4479 8.86103V9.75947C14.4479 10.7288 13.673 11.5327 12.7386 11.5327C11.8042 11.5327 11.0293 10.7525 11.0293 9.75947V8.86103C11.0293 4.36883 14.5391 0.727783 18.8693 0.727783C23.1995 0.727783 26.7093 4.36883 26.7093 8.86103C26.7093 13.3532 23.1995 16.9943 18.8693 16.9943Z" fill="white"/>
</svg>
